<svg width="186" height="33" viewBox="0 0 186 33" fill="none" xmlns="http://www.w3.org/2000/svg">
<path d="M16.549 10.3533L21.4511 22.4202" stroke="#BA62FF" stroke-width="6" stroke-linecap="round"/>
<path d="M16.549 10.3533L21.4511 22.4202" stroke="url(#paint0_linear_254_386)" stroke-width="6" stroke-linecap="round"/>
<path d="M3 3L10.8925 22.4278" stroke="#11001F" stroke-width="6" stroke-linecap="round"/>
<path d="M3 3L10.8925 22.4278" stroke="black" stroke-opacity="0.2" stroke-width="6" stroke-linecap="round"/>
<path d="M27.1074 10.3533L35 29.781" stroke="#11001F" stroke-width="6" stroke-linecap="round"/>
<path d="M27.1074 10.3533L35 29.781" stroke="black" stroke-opacity="0.2" stroke-width="6" stroke-linecap="round"/>
<path d="M51.24 24.216C50.264 24.216 49.584 23.728 49.2 22.752L45.816 14.376C45.56 13.72 45.56 13.168 45.816 12.72C46.088 12.256 46.592 12.024 47.328 12.024C47.744 12.024 48.08 12.128 48.336 12.336C48.608 12.528 48.848 12.904 49.056 13.464L51.408 19.776L53.88 13.152C54.152 12.4 54.664 12.024 55.416 12.024C56.168 12.024 56.688 12.4 56.976 13.152L59.424 19.872L61.824 13.368C62.016 12.856 62.256 12.504 62.544 12.312C62.848 12.12 63.184 12.024 63.552 12.024C64.24 12.024 64.688 12.264 64.896 12.744C65.104 13.224 65.08 13.768 64.824 14.376L61.464 22.752C61.08 23.728 60.4 24.216 59.424 24.216C58.448 24.216 57.768 23.728 57.384 22.752L55.296 17.304L53.256 22.728C52.888 23.72 52.216 24.216 51.24 24.216ZM70.8135 24.264C69.9335 24.264 69.1575 24.096 68.4855 23.76C67.8135 23.424 67.2775 22.968 66.8775 22.392C66.4935 21.816 66.3015 21.168 66.3015 20.448C66.3015 19.6 66.5255 18.92 66.9735 18.408C67.4215 17.896 68.1495 17.536 69.1575 17.328C70.1655 17.104 71.5015 16.992 73.1655 16.992H74.0295V16.584C74.0295 15.88 73.8695 15.384 73.5495 15.096C73.2295 14.792 72.6855 14.64 71.9175 14.64C71.4855 14.64 71.0135 14.696 70.5015 14.808C69.9895 14.904 69.4375 15.072 68.8455 15.312C68.3975 15.504 68.0215 15.52 67.7175 15.36C67.4135 15.184 67.2135 14.928 67.1175 14.592C67.0215 14.24 67.0455 13.888 67.1895 13.536C67.3495 13.184 67.6535 12.928 68.1015 12.768C68.8535 12.48 69.5575 12.28 70.2135 12.168C70.8855 12.04 71.5015 11.976 72.0615 11.976C73.8855 11.976 75.2455 12.392 76.1415 13.224C77.0375 14.04 77.4855 15.312 77.4855 17.04V22.368C77.4855 23.6 76.9255 24.216 75.8055 24.216C74.6695 24.216 74.1015 23.6 74.1015 22.368V22.224C73.8615 22.848 73.4535 23.344 72.8775 23.712C72.3175 24.08 71.6295 24.264 70.8135 24.264ZM71.6295 21.84C72.3015 21.84 72.8695 21.608 73.3335 21.144C73.7975 20.68 74.0295 20.08 74.0295 19.344V18.864H73.1895C71.9575 18.864 71.0855 18.976 70.5735 19.2C70.0615 19.408 69.8055 19.776 69.8055 20.304C69.8055 20.752 69.9575 21.12 70.2615 21.408C70.5815 21.696 71.0375 21.84 71.6295 21.84ZM84.4369 24.264C81.6049 24.264 80.1889 22.688 80.1889 19.536V8.712C80.1889 7.48 80.7969 6.864 82.0129 6.864C83.2129 6.864 83.8129 7.48 83.8129 8.712V19.392C83.8129 20.048 83.9489 20.536 84.2209 20.856C84.5089 21.16 84.8849 21.312 85.3489 21.312C85.4769 21.312 85.5969 21.304 85.7089 21.288C85.8369 21.272 85.9569 21.264 86.0689 21.264C86.3249 21.248 86.5009 21.328 86.5969 21.504C86.7089 21.68 86.7649 22.04 86.7649 22.584C86.7649 23.512 86.3729 24.04 85.5889 24.168C85.4289 24.184 85.2449 24.2 85.0369 24.216C84.8289 24.248 84.6289 24.264 84.4369 24.264ZM93.6135 24.264C90.3015 24.264 88.6455 22.656 88.6455 19.44V14.928H87.6375C86.6935 14.928 86.2215 14.48 86.2215 13.584C86.2215 12.672 86.6935 12.216 87.6375 12.216H88.6455V10.392C88.6455 9.16 89.2535 8.544 90.4695 8.544C91.6695 8.544 92.2695 9.16 92.2695 10.392V12.216H94.5495C95.4775 12.216 95.9415 12.672 95.9415 13.584C95.9415 14.48 95.4775 14.928 94.5495 14.928H92.2695V19.296C92.2695 19.968 92.4215 20.472 92.7255 20.808C93.0455 21.144 93.5495 21.312 94.2375 21.312C94.4775 21.312 94.7015 21.288 94.9095 21.24C95.1175 21.192 95.3095 21.16 95.4855 21.144C95.7095 21.128 95.8935 21.2 96.0375 21.36C96.1815 21.52 96.2535 21.848 96.2535 22.344C96.2535 22.744 96.1895 23.088 96.0615 23.376C95.9335 23.648 95.7095 23.848 95.3895 23.976C95.1815 24.056 94.8935 24.12 94.5255 24.168C94.1735 24.232 93.8695 24.264 93.6135 24.264ZM103.535 24.264C102.143 24.264 100.943 24.016 99.9354 23.52C98.9434 23.008 98.1754 22.296 97.6314 21.384C97.1034 20.456 96.8394 19.368 96.8394 18.12C96.8394 16.904 97.0954 15.84 97.6074 14.928C98.1354 14 98.8474 13.28 99.7434 12.768C100.655 12.24 101.703 11.976 102.887 11.976C104.599 11.976 105.959 12.52 106.967 13.608C107.975 14.68 108.479 16.136 108.479 17.976C108.479 18.584 108.103 18.888 107.351 18.888H100.295C100.423 19.816 100.759 20.496 101.303 20.928C101.863 21.344 102.631 21.552 103.607 21.552C103.991 21.552 104.423 21.512 104.903 21.432C105.399 21.336 105.871 21.176 106.319 20.952C106.783 20.728 107.175 20.688 107.495 20.832C107.815 20.96 108.031 21.184 108.143 21.504C108.271 21.824 108.271 22.16 108.143 22.512C108.031 22.848 107.767 23.128 107.351 23.352C106.791 23.656 106.167 23.88 105.479 24.024C104.807 24.184 104.159 24.264 103.535 24.264ZM103.031 14.376C102.263 14.376 101.639 14.608 101.159 15.072C100.695 15.536 100.407 16.184 100.295 17.016H105.479C105.383 15.256 104.567 14.376 103.031 14.376ZM112.459 24.216C111.211 24.216 110.587 23.6 110.587 22.368V13.848C110.587 12.632 111.179 12.024 112.363 12.024C113.547 12.024 114.139 12.632 114.139 13.848V14.28C114.715 12.856 115.907 12.088 117.715 11.976C118.115 11.944 118.419 12.048 118.627 12.288C118.851 12.512 118.971 12.888 118.987 13.416C119.019 13.912 118.915 14.304 118.675 14.592C118.451 14.88 118.067 15.056 117.523 15.12L116.971 15.168C115.179 15.344 114.283 16.256 114.283 17.904V22.368C114.283 23.6 113.675 24.216 112.459 24.216ZM129.053 24.216C127.837 24.216 127.229 23.6 127.229 22.368V13.848C127.229 12.632 127.821 12.024 129.005 12.024C130.189 12.024 130.781 12.632 130.781 13.848V13.92C131.133 13.312 131.613 12.84 132.221 12.504C132.845 12.152 133.565 11.976 134.381 11.976C135.213 11.976 135.917 12.16 136.493 12.528C137.085 12.896 137.533 13.456 137.837 14.208C138.205 13.504 138.733 12.96 139.421 12.576C140.125 12.176 140.901 11.976 141.749 11.976C143.093 11.976 144.093 12.384 144.749 13.2C145.405 14 145.733 15.24 145.733 16.92V22.368C145.733 22.96 145.573 23.416 145.253 23.736C144.949 24.056 144.509 24.216 143.933 24.216C142.717 24.216 142.109 23.6 142.109 22.368V17.04C142.109 16.256 141.981 15.688 141.725 15.336C141.485 14.968 141.069 14.784 140.477 14.784C139.789 14.784 139.253 15.024 138.869 15.504C138.485 15.984 138.293 16.664 138.293 17.544V22.368C138.293 23.6 137.693 24.216 136.493 24.216C135.917 24.216 135.469 24.056 135.149 23.736C134.829 23.416 134.669 22.96 134.669 22.368V17.04C134.669 16.256 134.541 15.688 134.285 15.336C134.029 14.968 133.613 14.784 133.037 14.784C132.349 14.784 131.813 15.024 131.429 15.504C131.045 15.984 130.853 16.664 130.853 17.544V22.368C130.853 23.6 130.253 24.216 129.053 24.216ZM154.629 24.264C153.237 24.264 152.037 24.016 151.029 23.52C150.037 23.008 149.269 22.296 148.725 21.384C148.197 20.456 147.933 19.368 147.933 18.12C147.933 16.904 148.189 15.84 148.701 14.928C149.229 14 149.941 13.28 150.837 12.768C151.749 12.24 152.797 11.976 153.981 11.976C155.693 11.976 157.053 12.52 158.061 13.608C159.069 14.68 159.573 16.136 159.573 17.976C159.573 18.584 159.197 18.888 158.445 18.888H151.389C151.517 19.816 151.853 20.496 152.397 20.928C152.957 21.344 153.725 21.552 154.701 21.552C155.085 21.552 155.517 21.512 155.997 21.432C156.493 21.336 156.965 21.176 157.413 20.952C157.877 20.728 158.269 20.688 158.589 20.832C158.909 20.96 159.125 21.184 159.237 21.504C159.365 21.824 159.365 22.16 159.237 22.512C159.125 22.848 158.861 23.128 158.445 23.352C157.885 23.656 157.261 23.88 156.573 24.024C155.901 24.184 155.253 24.264 154.629 24.264ZM154.125 14.376C153.357 14.376 152.733 14.608 152.253 15.072C151.789 15.536 151.501 16.184 151.389 17.016H156.573C156.477 15.256 155.661 14.376 154.125 14.376ZM165.929 24.264C163.097 24.264 161.681 22.688 161.681 19.536V8.712C161.681 7.48 162.289 6.864 163.505 6.864C164.705 6.864 165.305 7.48 165.305 8.712V19.392C165.305 20.048 165.441 20.536 165.713 20.856C166.001 21.16 166.377 21.312 166.841 21.312C166.969 21.312 167.089 21.304 167.201 21.288C167.329 21.272 167.449 21.264 167.561 21.264C167.817 21.248 167.993 21.328 168.089 21.504C168.201 21.68 168.257 22.04 168.257 22.584C168.257 23.512 167.865 24.04 167.081 24.168C166.921 24.184 166.737 24.2 166.529 24.216C166.321 24.248 166.121 24.264 165.929 24.264ZM175.22 24.264C173.956 24.264 172.852 24.016 171.908 23.52C170.98 23.008 170.26 22.296 169.748 21.384C169.236 20.456 168.98 19.36 168.98 18.096C168.98 16.848 169.236 15.768 169.748 14.856C170.26 13.928 170.98 13.216 171.908 12.72C172.852 12.224 173.956 11.976 175.22 11.976C176.484 11.976 177.58 12.224 178.508 12.72C179.452 13.216 180.18 13.928 180.692 14.856C181.22 15.768 181.484 16.848 181.484 18.096C181.484 19.36 181.22 20.456 180.692 21.384C180.18 22.296 179.452 23.008 178.508 23.52C177.58 24.016 176.484 24.264 175.22 24.264ZM175.22 21.552C175.988 21.552 176.612 21.272 177.092 20.712C177.588 20.152 177.836 19.28 177.836 18.096C177.836 16.928 177.588 16.072 177.092 15.528C176.612 14.968 175.988 14.688 175.22 14.688C174.452 14.688 173.828 14.968 173.348 15.528C172.868 16.072 172.628 16.928 172.628 18.096C172.628 19.28 172.868 20.152 173.348 20.712C173.828 21.272 174.452 21.552 175.22 21.552Z" fill="#11001F"/>
<defs>
<linearGradient id="paint0_linear_254_386" x1="19" y1="10.3533" x2="19" y2="22.4202" gradientUnits="userSpaceOnUse">
<stop stop-color="#FFB800"/>
<stop offset="1" stop-color="#FFB800" stop-opacity="0"/>
</linearGradient>
</defs>
</svg>
